<mxfile host="app.diagrams.net" agent="Mozilla/5.0 (Windows NT 10.0; Win64; x64) AppleWebKit/537.36 (KHTML, like Gecko) Chrome/140.0.0.0 Safari/537.36" version="27.2.0">
  <diagram name="Page-1" id="Vgg_kzHaniYl15PlQ_fC">
    <mxGraphModel dx="1769" dy="1777" grid="1" gridSize="10" guides="1" tooltips="1" connect="1" arrows="1" fold="1" page="1" pageScale="1" pageWidth="827" pageHeight="1169" math="0" shadow="0">
      <root>
        <mxCell id="0" />
        <mxCell id="1" parent="0" />
        <mxCell id="G9OS1T2lGF5NK5y_dXIs-25" value="" style="rounded=0;whiteSpace=wrap;html=1;" vertex="1" parent="1">
          <mxGeometry x="340" y="60" width="410" height="300" as="geometry" />
        </mxCell>
        <mxCell id="G9OS1T2lGF5NK5y_dXIs-15" style="edgeStyle=orthogonalEdgeStyle;rounded=0;orthogonalLoop=1;jettySize=auto;html=1;exitX=0.5;exitY=0;exitDx=0;exitDy=0;entryX=0.5;entryY=1;entryDx=0;entryDy=0;" edge="1" parent="1" source="G9OS1T2lGF5NK5y_dXIs-14" target="G9OS1T2lGF5NK5y_dXIs-4">
          <mxGeometry relative="1" as="geometry" />
        </mxCell>
        <mxCell id="G9OS1T2lGF5NK5y_dXIs-14" value="" style="rounded=0;whiteSpace=wrap;html=1;" vertex="1" parent="1">
          <mxGeometry x="215" y="420" width="430" height="410" as="geometry" />
        </mxCell>
        <mxCell id="G9OS1T2lGF5NK5y_dXIs-1" value="登录" style="rounded=0;whiteSpace=wrap;html=1;" vertex="1" parent="1">
          <mxGeometry x="-30" y="230" width="120" height="60" as="geometry" />
        </mxCell>
        <mxCell id="G9OS1T2lGF5NK5y_dXIs-3" value="数据看板" style="rounded=0;whiteSpace=wrap;html=1;" vertex="1" parent="1">
          <mxGeometry x="337" y="-130" width="120" height="60" as="geometry" />
        </mxCell>
        <mxCell id="G9OS1T2lGF5NK5y_dXIs-20" style="edgeStyle=orthogonalEdgeStyle;rounded=0;orthogonalLoop=1;jettySize=auto;html=1;exitX=1;exitY=0.5;exitDx=0;exitDy=0;entryX=0;entryY=0.5;entryDx=0;entryDy=0;" edge="1" parent="1" source="G9OS1T2lGF5NK5y_dXIs-4" target="G9OS1T2lGF5NK5y_dXIs-16">
          <mxGeometry relative="1" as="geometry" />
        </mxCell>
        <mxCell id="G9OS1T2lGF5NK5y_dXIs-21" style="edgeStyle=orthogonalEdgeStyle;rounded=0;orthogonalLoop=1;jettySize=auto;html=1;exitX=1;exitY=0.5;exitDx=0;exitDy=0;entryX=0;entryY=0.5;entryDx=0;entryDy=0;" edge="1" parent="1" source="G9OS1T2lGF5NK5y_dXIs-4" target="G9OS1T2lGF5NK5y_dXIs-17">
          <mxGeometry relative="1" as="geometry" />
        </mxCell>
        <mxCell id="G9OS1T2lGF5NK5y_dXIs-23" style="edgeStyle=orthogonalEdgeStyle;rounded=0;orthogonalLoop=1;jettySize=auto;html=1;exitX=1;exitY=0.5;exitDx=0;exitDy=0;entryX=0;entryY=0.5;entryDx=0;entryDy=0;" edge="1" parent="1" source="G9OS1T2lGF5NK5y_dXIs-4" target="G9OS1T2lGF5NK5y_dXIs-19">
          <mxGeometry relative="1" as="geometry" />
        </mxCell>
        <mxCell id="G9OS1T2lGF5NK5y_dXIs-4" value="数据资产管理" style="rounded=0;whiteSpace=wrap;html=1;" vertex="1" parent="1">
          <mxGeometry x="370" y="180" width="120" height="60" as="geometry" />
        </mxCell>
        <mxCell id="G9OS1T2lGF5NK5y_dXIs-10" style="edgeStyle=orthogonalEdgeStyle;rounded=0;orthogonalLoop=1;jettySize=auto;html=1;exitX=1;exitY=0.5;exitDx=0;exitDy=0;entryX=0;entryY=0.75;entryDx=0;entryDy=0;" edge="1" parent="1" source="G9OS1T2lGF5NK5y_dXIs-5" target="G9OS1T2lGF5NK5y_dXIs-6">
          <mxGeometry relative="1" as="geometry" />
        </mxCell>
        <mxCell id="G9OS1T2lGF5NK5y_dXIs-11" style="edgeStyle=orthogonalEdgeStyle;rounded=0;orthogonalLoop=1;jettySize=auto;html=1;exitX=1;exitY=0.5;exitDx=0;exitDy=0;entryX=0;entryY=0.5;entryDx=0;entryDy=0;" edge="1" parent="1" source="G9OS1T2lGF5NK5y_dXIs-5" target="G9OS1T2lGF5NK5y_dXIs-7">
          <mxGeometry relative="1" as="geometry" />
        </mxCell>
        <mxCell id="G9OS1T2lGF5NK5y_dXIs-12" style="edgeStyle=orthogonalEdgeStyle;rounded=0;orthogonalLoop=1;jettySize=auto;html=1;exitX=1;exitY=0.5;exitDx=0;exitDy=0;entryX=0;entryY=0.5;entryDx=0;entryDy=0;" edge="1" parent="1" source="G9OS1T2lGF5NK5y_dXIs-5" target="G9OS1T2lGF5NK5y_dXIs-8">
          <mxGeometry relative="1" as="geometry" />
        </mxCell>
        <mxCell id="G9OS1T2lGF5NK5y_dXIs-13" style="edgeStyle=orthogonalEdgeStyle;rounded=0;orthogonalLoop=1;jettySize=auto;html=1;exitX=1;exitY=0.5;exitDx=0;exitDy=0;entryX=0;entryY=0.5;entryDx=0;entryDy=0;" edge="1" parent="1" source="G9OS1T2lGF5NK5y_dXIs-5" target="G9OS1T2lGF5NK5y_dXIs-9">
          <mxGeometry relative="1" as="geometry" />
        </mxCell>
        <mxCell id="G9OS1T2lGF5NK5y_dXIs-5" value="数据源管理" style="rounded=0;whiteSpace=wrap;html=1;" vertex="1" parent="1">
          <mxGeometry x="279" y="580" width="120" height="60" as="geometry" />
        </mxCell>
        <mxCell id="G9OS1T2lGF5NK5y_dXIs-6" value="文件" style="rounded=0;whiteSpace=wrap;html=1;" vertex="1" parent="1">
          <mxGeometry x="475" y="440" width="120" height="60" as="geometry" />
        </mxCell>
        <mxCell id="G9OS1T2lGF5NK5y_dXIs-7" value="数据库" style="rounded=0;whiteSpace=wrap;html=1;" vertex="1" parent="1">
          <mxGeometry x="475" y="530" width="120" height="60" as="geometry" />
        </mxCell>
        <mxCell id="G9OS1T2lGF5NK5y_dXIs-8" value="爬虫" style="rounded=0;whiteSpace=wrap;html=1;" vertex="1" parent="1">
          <mxGeometry x="475" y="624.5" width="120" height="60" as="geometry" />
        </mxCell>
        <mxCell id="G9OS1T2lGF5NK5y_dXIs-9" value="api" style="rounded=0;whiteSpace=wrap;html=1;" vertex="1" parent="1">
          <mxGeometry x="475" y="720" width="120" height="60" as="geometry" />
        </mxCell>
        <mxCell id="G9OS1T2lGF5NK5y_dXIs-16" value="文件" style="rounded=0;whiteSpace=wrap;html=1;" vertex="1" parent="1">
          <mxGeometry x="600" y="75" width="120" height="60" as="geometry" />
        </mxCell>
        <mxCell id="G9OS1T2lGF5NK5y_dXIs-17" value="数据库" style="rounded=0;whiteSpace=wrap;html=1;" vertex="1" parent="1">
          <mxGeometry x="600" y="145" width="120" height="60" as="geometry" />
        </mxCell>
        <mxCell id="G9OS1T2lGF5NK5y_dXIs-18" value="爬虫" style="rounded=0;whiteSpace=wrap;html=1;" vertex="1" parent="1">
          <mxGeometry x="600" y="210" width="120" height="60" as="geometry" />
        </mxCell>
        <mxCell id="G9OS1T2lGF5NK5y_dXIs-19" value="api" style="rounded=0;whiteSpace=wrap;html=1;" vertex="1" parent="1">
          <mxGeometry x="600" y="280" width="120" height="60" as="geometry" />
        </mxCell>
        <mxCell id="G9OS1T2lGF5NK5y_dXIs-22" style="edgeStyle=orthogonalEdgeStyle;rounded=0;orthogonalLoop=1;jettySize=auto;html=1;exitX=1;exitY=0.5;exitDx=0;exitDy=0;entryX=0.029;entryY=0.619;entryDx=0;entryDy=0;entryPerimeter=0;" edge="1" parent="1" source="G9OS1T2lGF5NK5y_dXIs-4" target="G9OS1T2lGF5NK5y_dXIs-18">
          <mxGeometry relative="1" as="geometry" />
        </mxCell>
        <mxCell id="G9OS1T2lGF5NK5y_dXIs-24" value="数据源管理" style="text;html=1;align=center;verticalAlign=middle;whiteSpace=wrap;rounded=0;" vertex="1" parent="1">
          <mxGeometry x="230" y="430" width="90" height="30" as="geometry" />
        </mxCell>
        <mxCell id="G9OS1T2lGF5NK5y_dXIs-26" value="数据资产管理" style="text;html=1;align=center;verticalAlign=middle;whiteSpace=wrap;rounded=0;" vertex="1" parent="1">
          <mxGeometry x="354" y="75" width="86" height="35" as="geometry" />
        </mxCell>
        <mxCell id="G9OS1T2lGF5NK5y_dXIs-27" value="角色" style="rounded=0;whiteSpace=wrap;html=1;" vertex="1" parent="1">
          <mxGeometry x="130" y="230" width="120" height="60" as="geometry" />
        </mxCell>
        <mxCell id="G9OS1T2lGF5NK5y_dXIs-28" value="权限" style="rounded=0;whiteSpace=wrap;html=1;" vertex="1" parent="1">
          <mxGeometry x="130" y="330" width="120" height="60" as="geometry" />
        </mxCell>
        <mxCell id="G9OS1T2lGF5NK5y_dXIs-29" value="用户" style="rounded=0;whiteSpace=wrap;html=1;" vertex="1" parent="1">
          <mxGeometry x="130" y="145" width="120" height="60" as="geometry" />
        </mxCell>
      </root>
    </mxGraphModel>
  </diagram>
</mxfile>
